<svg xmlns="http://www.w3.org/2000/svg" width="512" height="512" viewBox="0 0 512 512">
<g id="background">
<path d="M0 512C170.66 512 341.33 512 512 512C512 341.33 512 170.66 512 0C341.33 0 170.66 0 0 0C0 170.66 0 341.33 0 512Z" fill="rgb(254,254,254)"/>
</g>
<g id="foreground">
<path d="M310.5 310C316.49 308 324.52 297.87 329.77 297.2C334.22 296.63 340.39 298.98 345.25 299C343.81 303.82 340.16 302.92 337.14 305.53C331.61 310.3 327.47 319.58 335.32 324.41C343.22 329.28 352.37 322.24 356.73 315.83C358.26 313.59 359.46 309.7 361.53 308.06C365.09 305.24 375.97 308.3 378.05 298.04C379.83 289.29 370.94 286.72 365.51 282.61C361.91 279.89 359.31 276.89 355.21 274.72C353.48 273.8 349.17 273.28 348.21 271.7C347.77 270.98 348.28 262.8 348.5 261.75C349.62 263.1 349.63 265.39 350.75 266.75C355.9 251.73 341.87 240.79 344.99 229.29C345.36 227.9 352.41 231.53 356.48 230.15C363.52 227.77 363.44 221.93 364.93 215.69C366.65 208.52 364.61 211.02 360.25 212.75C359.25 208.36 359.21 210.11 356.5 211.5C355.83 209.96 355.25 205.85 357.5 205.5C357.53 206.33 357.63 207.17 357.75 208C359.31 207.8 360.55 205.79 362.25 204.75C362.57 205.85 362.64 207.04 362.75 208.25C365.45 207.29 372.18 200.95 373.38 198.38C374.58 195.82 374.45 193.27 374.34 190.53C373.94 180.9 369.43 183.34 362.41 180.77C358.97 179.52 356.66 176.52 352.8 175.33C341.91 171.95 331.49 174.9 320.51 174.48C314.95 174.27 309.56 172.53 304 172.5C303.99 175.86 304.28 179.28 305.87 182.01C306.77 183.55 308.15 184.89 308.09 186.24C308.05 187.02 306.59 187.69 305.56 188.62C301 192.69 296.93 197.29 293.02 202.04C291.34 204.08 289.87 206.49 288 206.75C288.61 202.7 296.49 193.36 298 186.5C294.15 188.08 290.68 192.71 287 195C284.81 189.36 281.43 184.08 276.63 180.72C276.11 180.35 275.64 179.95 275.25 179.5C277.74 178.24 278.2 175.11 279.07 172.75C283.57 160.63 284.56 153.08 275.01 142.73C273.13 140.7 270.67 138.03 267.75 137.75C267.81 138.5 267.89 139.25 268 140C264.22 139.71 250.49 137.78 247.42 136.48C244.99 135.45 241.06 131.26 239.25 131C239.44 136.08 241.28 138.31 242.75 142.75C237.07 142.75 231.17 142.58 226.48 139.73C224.55 138.57 223.15 136.54 221.25 135.75C221.8 143.7 226.65 151.58 234.67 153.72C238.79 154.81 242.88 154.76 247 156.25C244.85 158.81 228.86 165.43 225 166.5C226.86 168.23 230.46 168.07 232.5 169.75C230.21 170.35 227.8 169.71 225.48 170.14C220.45 171.06 216.55 174.12 211.16 173.71C206.27 173.34 201.84 170.96 197.22 169.55C186.21 166.21 174.25 168.95 166.75 178C168.84 177.89 170.86 176.82 172.99 176.47C176 175.98 178.65 175.31 181.75 175.55C183.47 175.69 193.54 177.23 192.59 179.71C191.75 181.9 186.86 179.22 185.25 178.75C177.79 176.57 169.41 177.47 162.98 181.54C152.94 187.9 147.33 200.67 150.96 212.25C152.22 216.25 154.19 220.05 157.03 223.04C160.36 226.56 164.14 229.77 168.5 230.75C167.63 227.28 165.03 225.02 164.61 221.21C163.12 207.54 177.67 204.19 188.25 205.75C186.42 208.15 183.25 209.8 183 212C184.67 211.81 186.23 210.75 187.96 210.25C192.07 209.06 196.52 209.12 200.5 210.5C198.45 212.5 195.78 213.32 194.13 215.81C192.3 218.56 191.29 221.9 189.8 224.85C185.03 234.26 180.69 243.88 176.28 253.46C175.46 255.23 175.78 258.66 174.47 259.78C173.01 261.03 170.19 261.75 168.4 262.57C157.02 267.8 148.02 267.85 138.42 277.01C137.24 278.13 135.24 279.53 135 281.25C141.05 281.21 148.19 280.93 153.86 278.67C157.16 277.36 159.71 274.91 162.74 273.13C167.05 270.6 172.98 268.26 177.75 266.71C179.92 266 182.33 266.88 184.59 266.66C187.96 266.32 194.79 264.23 197.8 262.7C200.8 261.17 199.43 257.85 201.59 256.1C203.54 254.52 207.81 253.54 210.25 252.5C209.11 253.95 207.53 255.04 206.3 256.43C202.27 261.02 199.01 266.09 193.38 268.98C185.43 273.07 177.8 269.88 166.46 276.42C164.98 277.28 162.91 278.32 162.25 280C167.83 279.95 173.89 281.82 179.44 282.68C184.79 283.51 189.17 283.3 194.5 283C192.66 287.15 181.5 295.43 178 301.5C178.16 301.66 178.33 301.83 178.5 302C182.08 302.03 185.37 305.38 183.75 309C180.16 307.48 181.4 305.52 176 305.75C173.77 308.89 172.09 311.55 170.25 315C172.05 316.46 173.51 316.53 174.75 318.75C175.45 320.01 175.51 321.62 175 323C173.73 322.41 172.96 320.79 171.75 319.75C170.57 319.65 169.43 319.21 168.25 319C166.39 322.46 163.62 325.88 161.5 329.25C161.5 329.59 161.41 329.94 161.5 330.25C162.12 332.67 166.1 339.49 161.25 339.75C160.87 337.79 160 335.9 160 334C159.73 333.17 159.55 332.3 159 332C155.37 335.62 146.2 340.01 145.5 331.5C141.48 331.16 140.95 331.22 137.25 332.75C138.1 329.89 144.21 326.74 145.5 330.5C147.03 328.63 148.17 326.47 150.11 324.97C156.11 320.3 158.82 322.66 162.53 314.3C163.25 312.69 164.33 310.94 164.75 309.25C160.37 309.22 156.07 310.37 151.98 311.85C126.65 321.04 129.59 351.94 151.13 349.65C171.28 347.5 179.77 314.81 185 314C184.96 319.64 186.84 326.39 184.54 331.75C182.24 337.07 176.82 336.79 173.99 340.52C171.25 344.16 165.87 366.94 166.51 371.49C166.9 374.25 168.46 376.66 170.67 378.32C176.38 382.62 190.68 381.25 187.52 371.47C186.48 368.24 182.77 367.03 182.26 363.45C181.96 361.4 183.6 353.77 185.18 352.49C187.29 350.77 191.18 351.14 193.75 350.45C202.4 348.09 213.34 339.64 216 330.75C221.31 332.53 218.28 338.34 217.39 342.25C216.88 344.49 216.65 346.87 215.7 349C214.82 350.94 213.18 352.41 212.21 354.3C210.17 358.23 211.56 363.45 215.33 365.77C217.5 367.11 220.14 367.43 222.58 366.71C234.49 363.2 224.72 348.41 231.75 341.97C236.93 337.22 249.69 343.64 259.69 329.77C262.41 325.99 264.04 321.43 264 316.75C265.7 316.48 280.27 315.77 281.5 316C279.43 317.95 267.38 322.74 277.04 321.77C288.6 320.6 299.58 316.12 308.75 309C309.52 308.39 310.16 307.61 311 307.25C310.73 308.14 310.54 309.06 310.5 310Z" fill="rgb(13,18,21)"/>
<path d="M297.25 225.5C294.05 220.98 294.75 215.92 293.5 211C287.05 222.14 294.58 234.42 300 244C294.51 243.44 285.59 223.86 289.35 237.98C289.77 239.57 290.26 241.14 290.8 242.7C292.19 246.73 294.71 250.37 296 254.25C289.67 251.95 284.58 240.66 283.17 234.53C282.72 232.54 283 230.47 282.5 228.5C280.74 230.28 280.81 233.44 280.96 235.75C281.66 246.95 288.96 258.92 295.21 268.04C296.51 269.94 299.95 273.09 300.25 275.25C297.97 274.7 295.61 272.6 293.81 271.15C284.19 263.34 278.62 254.06 275.5 242.25C273.3 247.53 278.89 259.74 281.25 264.69C291.51 286.15 297.41 297.46 323.66 290.32C329.18 288.82 334.79 287.35 340.5 288.8C342.98 289.43 345.4 290.19 347.42 291.83C350.84 294.6 358.96 308.39 362.75 298.5C363.85 299.35 364.54 300.75 364.75 302.25C368.69 300.77 366.47 297.5 366 294.75C367.98 295.91 369.6 297.88 369.75 300C373.02 299.53 369.45 295.34 369.75 293.5C371.21 294.41 372.26 295.94 373.5 297.25C374.36 291.57 367.79 290.23 364.5 287.75C358.5 289.15 356.2 284.34 351.57 282.01C347.99 280.21 343.96 279.39 339.99 279.09C336.14 278.81 319.21 281.26 318.25 278C311.22 276.85 299.89 269.88 316 272.5C313.98 264.68 298.69 255.05 298 248.75C301.76 250.11 306.34 254.93 309.82 257.31C310.96 258.1 312.74 259.01 314.16 258.57C314.64 258.42 314.75 258.06 314.61 257.62C313.3 253.41 303.68 247.14 300.93 242.34C299.37 239.61 302.49 241.7 303.31 242.22C305.83 243.81 308.36 245.34 311 246.75C308.97 241.81 294.38 232.36 297.25 225.5Z" fill="rgb(230,146,70)"/>
<path d="M220.75 269.25C210.23 278.31 215.01 295.33 213.25 298C212.31 295.63 210.01 285.22 209.5 284.5C206.84 292.1 206.63 300.54 207.19 308.89C207.23 309.53 207.15 310.16 207 310.75C203.45 307.01 202.59 294.82 202.61 289.8C202.62 287.63 203.23 284.81 202.75 282.75C195.28 288.59 192.11 299.54 191.95 310.25C191.89 313.84 192.25 317.44 192.77 321.01C192.87 321.64 194.27 326.1 194.28 326.09C196.35 323.95 196.74 320.19 197.14 316.5C197.56 312.55 198 308.46 198 304.5C200.22 304.84 199.95 309.35 200.13 311.49C201.1 323.1 197.88 337.08 187.36 343.56C186.23 344.26 185.03 344.83 184.25 345.75C190.97 345.54 197.17 342.67 201.05 337.02C202.82 334.43 204.09 331.5 205.01 328.47C205.64 326.44 206.01 323.94 207.25 323.75C207.23 328.41 207.05 331.46 206 336C206.11 335.94 206.22 335.88 206.33 335.81C214.18 330.76 210.84 313.37 213.6 304.98C214.83 301.22 218.65 299.5 219.4 295.23C220.2 290.59 219.12 285.48 219.24 280.75C219.35 276.79 220.54 273.08 220.75 269.25Z" fill="rgb(228,148,74)"/>
<path d="M331.5 194C330.2 191.53 328.5 190.1 328.25 187C327.71 187.03 327.22 187.12 326.75 187.25C326.75 194.42 324.2 194.01 321.74 199.77C320.79 201.99 321.07 204.44 320.5 206.75C318.56 204.59 318.25 202.32 316.75 206.75C315.16 204.61 316.81 200.31 318 196.25C316.6 196.38 315.34 197.26 314.25 198.25C314.58 199.24 314.17 199.56 313 199.75C313.04 198.15 313.14 196.95 314.25 196C315.3 195.08 315.88 193.55 316 192C311 192.41 309.71 202.51 309.25 206.25C310.61 205.12 311.65 203.42 313 203.25C312.74 207.74 310.41 215.31 314.25 219C315.3 214.96 315.67 210.37 318 209.25C318.22 214.89 321.65 222.3 326 226C326.57 223.69 329.22 215.76 329.33 214.42C329.77 209.47 324.69 207.2 328.51 201.36C329.25 200.23 330.36 199.17 331.75 199C331.56 201.21 331.07 203.45 331.7 205.39C333.29 210.26 334.91 204.46 337.25 203.5C337.15 205.31 336.81 207.23 337.45 208.98C338.97 213.11 348.81 217.33 349 221.08C349.07 222.27 347.58 223.54 347.25 224.75C350.26 225.68 352.54 227.75 355.69 226.15C356.97 225.5 362.01 221.05 359.34 219.51C357.72 218.57 354.46 219.35 352.49 218.72C347.33 217.08 341.67 209.48 343.98 203.98C348.31 193.68 358.9 199.3 363.81 198.11C365.14 197.79 366.36 196.9 366.99 195.67C369.19 191.35 363.4 190.16 360.75 189C359.15 188.29 354.28 187.67 352.5 187.75C350.91 187.81 349.33 188 347.75 188C346.06 188.39 342.28 188.24 344 190.5C346.48 190.09 352.37 190.45 354.75 191.25C354.87 191.05 353.49 190.12 352 190C350.1 189.84 348.1 190.31 347 189.5C349.09 188.93 351.37 188.97 353.5 189.5C355.83 190.07 359.21 189.8 359.5 192.25C360.67 192.7 361.75 193.47 362.25 194.5C355.81 193.03 350.12 192.99 343.67 194.68C341.5 195.25 339.13 196.76 337 197C337 199.93 332.1 195.15 331.5 194Z" fill="rgb(249,249,245)"/>
<path d="M233.5 205C228.39 209.56 221.71 211.99 216.83 216.62C213.11 220.14 213.67 223.66 211.05 227.26C208.81 230.35 205.04 232.14 202.43 234.95C200.15 237.39 196.58 241.43 196.9 245.03C196.95 245.5 197.58 247.63 198.03 247.59C200.35 247.41 213.05 241.11 214.84 239.42C218 236.43 219.88 232.04 223.18 228.91C229.51 222.91 238.73 222.38 235.58 211.36C234.97 209.24 234.64 206.89 233.5 205Z" fill="rgb(252,252,252)"/>
<path d="M316 272.5C317.36 272.72 318.74 273.07 320 272.75C318.85 268.7 317.04 265.6 315 262C318.35 262.13 321.45 265.21 323.21 268.79C324.01 270.43 324.86 272.2 326.02 272.34C330.56 272.88 326.59 259.79 325.57 257.74C319.69 245.97 307.12 239.96 299.92 229.15C299.07 227.87 298.1 226.7 297.25 225.5C294.38 232.36 308.97 241.81 311 246.75C308.36 245.34 305.83 243.81 303.31 242.22C302.49 241.7 299.37 239.61 300.93 242.34C303.68 247.14 313.3 253.41 314.61 257.62C314.75 258.06 314.64 258.42 314.16 258.57C312.74 259.01 310.96 258.1 309.82 257.31C306.34 254.93 301.76 250.11 298 248.75C298.69 255.05 313.98 264.68 316 272.5Z" fill="rgb(251,250,243)"/>
<path d="M258.25 275.75C257.92 274.43 257.71 273.05 257 272C253.47 286.18 259.08 300.7 273.61 305.4C276.95 306.48 281.02 307.45 284.5 306.5C272.19 299.44 263.63 290.93 263 275.75C261.23 276.02 261.11 278.66 260.5 280.25C260.26 280.85 260.05 281.46 259.75 282C259.47 281.29 259.25 280.53 259.25 279.75C258.83 278.46 258.58 277.1 258.25 275.75Z" fill="rgb(251,251,249)"/>
<path d="M268.25 245.5C268.33 262.18 268.6 285.6 283.99 296.17C286.4 297.81 289.04 299.62 292 300C289.68 297.26 287.12 295.23 285.13 292.11C279.88 283.85 275.38 268.24 272.13 258.59C270.77 254.54 270.16 249.17 268.25 245.5Z" fill="rgb(227,149,78)"/>
<path d="M308.5 219.5C307.2 222.69 311.88 229.51 313.5 232.25C310.8 231.28 309.1 227.82 307.09 224.76C305.58 222.46 304.75 219.73 303.59 217.17C303.33 216.6 303.17 215.87 303.15 215.87C302.03 216.05 301.5 215.98 301.5 217.5C301.5 228.6 318.73 241.6 325.59 249.32C328.28 252.35 330.11 256.46 332.75 259.25C334.5 248.37 321.24 237.93 315.23 230.21C312.64 226.89 310.82 223.01 308.5 219.5Z" fill="rgb(249,248,242)"/>
<path d="M256.75 251C254.62 256.83 247.59 257.22 248.25 249C246.74 249.01 245.25 249.2 243.75 249.25C244.66 247.04 246.66 247.47 248.25 246.25C244.32 245.15 241.35 246.15 237.5 246.25C237.59 245.49 237.68 244.76 238 244.25C234.48 244.33 225.87 247.66 226.84 252.33C227.01 253.14 227.55 253.87 228.44 253.35C229.67 252.62 230.66 250.11 231.75 249C231.96 249.92 231.77 250.95 231.75 252C235.07 251.58 238.44 249.21 241.25 250C240.68 252.48 244.24 261.21 246.77 261.8C249.01 262.32 255.27 257.75 256.22 255.77C256.96 254.22 256.68 252.64 256.75 251Z" fill="rgb(225,148,79)"/>
<path d="M237.5 228C240.06 227.58 242.24 225.92 244.74 225.28C247.48 224.58 250.38 224.96 253.08 224.16C264.73 220.73 281.62 210.02 288 199.5C285.82 199.75 281.98 203.28 279.98 204.56C266.8 213 252.26 219.13 238.5 226.5C238.02 226.75 237.83 227.43 237.5 228Z" fill="rgb(248,249,248)"/>
<path d="M251.25 228.25C248.59 228.85 245.88 228.8 243.29 229.75C237.39 231.94 231.59 235.35 225.93 238.13C217.19 242.43 208.28 246.53 199.66 251.06C198.49 251.67 197.79 251.88 198 253.25C208.7 250.14 245.9 236.99 251.25 228.25Z" fill="rgb(247,246,245)"/>
<path d="M326.75 187.25C326.75 184.48 328.06 181.11 326.5 180L326.5 180.25C326.07 182.88 320.81 185.62 318.5 186C318.4 186.31 318.23 186.55 318 186.75C318.74 188.06 315.53 191.55 316 192C315.88 193.55 315.3 195.08 314.25 196C314.14 196.79 314.02 197.58 314.25 198.25C315.34 197.26 316.6 196.38 318 196.25C316.81 200.31 315.16 204.61 316.75 206.75C318.25 202.32 318.56 204.59 320.5 206.75C321.07 204.44 320.79 201.99 321.74 199.77C324.2 194.01 326.75 194.42 326.75 187.25Z" fill="rgb(226,145,72)"/>
<path d="M341.25 269.5C344.77 265.39 343.49 255.41 342.5 250.5C343.93 250.95 345.15 251.98 346.5 252.75C345.43 249.31 343.17 246.25 342.23 242.71C341.46 239.78 340.59 236.6 340.37 233.57C340.26 231.95 340.79 230.26 340.5 228.75C339.39 231.21 339.4 240.24 336.86 234.17C335.6 231.17 335.39 227.86 334.5 224.75C331.7 233.8 336.06 239.69 340 247.25C339.03 247.37 337.91 245.86 336.5 245C336.77 247.95 338.66 250.72 339.56 253.75C341.11 258.91 341.99 264.17 341.25 269.5Z" fill="rgb(253,254,254)"/>
<path d="M364.5 287.75C361.64 285.59 359.25 282.89 356.34 280.81C348.56 275.23 338.38 275.21 329.31 276.58C326.2 277.04 321.26 278.48 318.25 278C319.21 281.26 336.14 278.81 339.99 279.09C343.96 279.39 347.99 280.21 351.57 282.01C356.2 284.34 358.5 289.15 364.5 287.75Z" fill="rgb(253,254,247)"/>
<path d="M343 190.75C333.73 193.3 332.82 188.12 330.44 181.08C329.56 178.49 328.78 181.42 328.59 182.41C328.31 183.92 328.12 185.46 328.25 187C328.5 190.1 330.2 191.53 331.5 194C334.08 194.91 337 195.88 337 197C339.13 196.76 341.5 195.25 343.67 194.68C350.12 192.99 355.81 193.03 362.25 194.5C361.75 193.47 360.67 192.7 359.5 192.25C358.09 191.7 356.28 191.76 354.75 191.25C352.37 190.45 346.48 190.09 344 190.5C343.68 190.55 343.35 190.75 343 190.75Z" fill="rgb(17,13,9)"/>
<path d="M256.75 251C257.2 240.15 239.98 241.03 238 244.25C237.68 244.76 237.59 245.49 237.5 246.25C241.35 246.15 244.32 245.15 248.25 246.25C246.66 247.47 244.66 247.04 243.75 249.25C245.25 249.2 246.74 249.01 248.25 249C247.59 257.22 254.62 256.83 256.75 251Z" fill="rgb(251,248,238)"/>
<path d="M301.5 217.5C301.5 215.98 302.03 216.05 303.15 215.87C303.17 215.87 303.33 216.6 303.59 217.17C304.75 219.73 305.58 222.46 307.09 224.76C309.1 227.82 310.8 231.28 313.5 232.25C311.88 229.51 307.2 222.69 308.5 219.5C305.64 215.18 304.13 207.23 304.29 202.11C304.35 200 305.15 197.79 305 195.75C299.98 199.98 298.49 211.87 301.5 217.5Z" fill="rgb(227,149,79)"/>
<path d="M248.75 284C239.41 294.43 254.09 308.99 263 309C261.61 307.07 259.21 305.86 257.49 304.01C252.29 298.42 249.77 291.42 248.75 284Z" fill="rgb(248,249,249)"/>
<path d="M271 175.5C272.46 175.8 273.93 176.31 275.25 176C274.86 175.01 274.11 174.2 273.25 173.5C273.99 173.25 274.75 172.99 275.5 172.75C274.64 172.05 273.4 171.78 273 171C275.35 171.04 277.91 171.08 274.25 169.25C275.14 168.47 276.55 168.27 278 168.25C277.84 166.9 277.04 165.62 276.9 164.27C276.85 163.81 277.23 163.31 277.44 162.77C278.38 160.37 274.03 159.5 272 159C271.4 159.07 271.07 159.4 271 160C273.26 160.18 275.5 161.72 275.5 163.25C275.5 163.85 275.75 164.44 275.75 165C275.11 164.8 274.57 164.34 274 164.25C272.86 164.05 270.09 163.66 269 163.75C266.83 163.91 270.38 173.86 271 175.5Z" fill="rgb(252,251,246)"/>
<path d="M227.75 191.75C229.09 191.42 230.17 190.19 231.5 189.75C230.83 190.82 229.67 191.63 229.25 192.75C229.41 193.01 229.52 193.3 229.75 193.5C235.15 193.12 239.21 190.36 245 192.5C242.03 184.57 232.88 183.25 227.73 189.83C227.25 190.44 226.78 191.32 227.75 191.75Z" fill="rgb(250,248,239)"/>
<path d="M248.75 266C243.09 269.37 239.01 260.58 236.75 256.25C235.38 256.98 234.03 257.87 232.75 257.75C231.79 259.18 231.6 261.12 231.25 263C232.62 262.44 234.6 259.69 236.08 260.21C239.15 261.29 240.76 270.92 243.98 270.86C245.44 270.84 247.62 269.54 248.98 268.94C251.79 267.71 253.17 266.51 254 263.5C252.36 263.83 247.98 264.79 248.75 266Z" fill="rgb(227,160,96)"/>
<path d="M335 183.5C333.98 182.19 333.79 180.21 333.75 178.25C331.66 178.58 329.07 179.25 327 179.25C326.81 179.49 326.7 179.78 326.5 180C328.06 181.11 326.75 184.48 326.75 187.25C327.22 187.12 327.71 187.03 328.25 187C328.12 185.46 328.31 183.92 328.59 182.41C328.78 181.42 329.56 178.49 330.44 181.08C332.82 188.12 333.73 193.3 343 190.75C342.38 190.75 341.79 190.65 341.25 190.5C341.81 189.53 342 188.47 341.5 188.25C340.01 187.59 338.65 186.57 337.75 185.25C336.34 185.25 334.95 185.2 333.75 184.75C334.14 184.27 334.48 183.69 335 183.5Z" fill="rgb(229,152,82)"/>
<path d="M251.75 196C249.41 195.09 247.19 193.3 245 192.5C239.21 190.36 235.15 193.12 229.75 193.5C230.44 194.11 232.66 197.03 233.29 197.1C235.71 197.36 238.07 195.32 240.48 195.24C242.71 195.16 243.51 197.3 245.3 197.85C246.43 198.19 248.35 196.52 248.75 197.75C249.75 197.16 250.67 196.43 251.75 196Z" fill="rgb(226,149,79)"/>
<path d="M263 178C263 176.95 262.85 175.92 262.5 175C261.13 175.57 260.27 177.21 259.19 178.67C252.98 187.09 266.85 192.46 267.75 184.75C266.3 185.23 266.25 185.06 266.39 183.55C266.62 181.05 267.82 178.38 266.89 177.36C264.75 175.01 263.95 182.6 263.75 183.5C263.96 184.81 264.13 185.41 263.75 186.75C261.51 185.73 260.37 177.67 263 178Z" fill="rgb(227,157,93)"/>
<path d="M188.5 251.75C188.5 248.33 189.12 245.18 188.75 241.75C186.08 241.63 179.22 254.6 179.75 256.5C180.05 256.29 180.43 256.19 180.75 256C182.5 254.91 185.74 255.54 187.5 254C188.11 253.46 188.5 252.61 188.5 251.75Z" fill="rgb(249,248,240)"/>
<path d="M353.25 184.5C350.72 185.47 342.28 180.65 335 183.5C334.48 183.69 334.14 184.27 333.75 184.75C334.95 185.2 336.34 185.25 337.75 185.25C339.71 185.25 341.62 186.27 343.25 187.5C344.27 188.27 346.05 188 347.75 188C349.33 188 350.91 187.81 352.5 187.75C353.48 186.49 354.68 185.38 355.25 184C354.54 184.11 353.86 184.26 353.25 184.5Z" fill="rgb(13,13,14)"/>
<path d="M272 159C262.95 156.75 259.71 173.18 271 175.5C270.38 173.86 266.83 163.91 269 163.75C268.71 163.15 268.34 162.58 268 162C268.75 161.82 269.6 161.81 270.5 161.75C269.99 160.52 269.76 159.89 271 160C271.07 159.4 271.4 159.07 272 159Z" fill="rgb(228,150,80)"/>
<path d="M217.5 207.5C216.74 206.53 215.53 204.37 214.25 204.15C213.16 203.96 202.7 213.26 201.25 214.75C202.35 215.1 203.56 215.19 204.5 215.75C204.8 213.29 207.8 213.19 209.5 211.75C210.79 210.64 211.23 210.6 210.25 212.25C210.08 212.52 209.92 212.83 209.87 213.15C209.2 216.9 217.06 208.43 217.5 207.5Z" fill="rgb(254,252,243)"/>
<path d="M247.5 236.75C254.91 235.84 262.89 228.37 269.25 224.75C267.16 223.7 259.25 226.2 257.33 227.51C255.37 228.83 249.12 234.84 247.5 236.75Z" fill="rgb(253,254,254)"/>
<path d="M337.75 180.25C337.12 179.86 336.93 178.84 336.5 178C335.55 178.03 334.63 178.1 333.75 178.25C333.79 180.21 333.98 182.19 335 183.5C342.28 180.65 350.72 185.47 353.25 184.5C352.45 182.42 348.59 180.86 346.5 179.75C345.46 179.19 345.63 179.31 345 178.5C344.67 178.53 344.33 178.47 344 178.5C342.74 178.6 342.66 178.89 342.5 180C343.37 181.32 339.09 181.08 337.75 180.25Z" fill="rgb(253,249,231)"/>
<path d="M204.5 215.75C206.34 216.85 207.59 218.69 209.75 219.5C210.98 217.06 212.8 214.91 214.92 213.13C217.55 210.92 219.64 210.26 217.5 207.5C217.06 208.43 209.2 216.9 209.87 213.15C209.92 212.83 210.08 212.52 210.25 212.25C209.93 212.15 209.69 211.98 209.5 211.75C207.8 213.19 204.8 213.29 204.5 215.75Z" fill="rgb(225,153,86)"/>
<path d="M229.25 273.25C230.82 272.27 232.32 271.11 234 270.25C235.18 272.33 237.98 279.19 240.38 279.42C246.77 280.03 236.71 270.12 235.75 267.5C232.8 268.49 230.35 270.23 229.25 273.25Z" fill="rgb(225,158,97)"/>
<path d="M351 180.5C349.88 180.22 348.84 179.59 347.75 179.5C347.31 179.46 346.89 179.6 346.5 179.75C348.59 180.86 352.45 182.42 353.25 184.5C353.86 184.26 354.54 184.11 355.25 184C354.68 185.38 353.48 186.49 352.5 187.75C354.28 187.67 359.15 188.29 360.75 189C361.34 187.86 363.36 187.57 365 186.75C364.75 186.71 364.5 186.61 364.25 186.5C361.9 186.18 358.69 185.57 356.5 184.75C357.48 184.22 358.74 184.25 360 184.25C358.13 183.78 357.84 184.08 357 182.5C356.77 184.2 355.88 182.72 355.25 182C353.91 182.1 352.52 180.87 351 180.5Z" fill="rgb(217,138,69)"/>
<path d="M263 275.75C262.96 274.94 262.67 254.21 260.61 260.25C259.52 263.43 258.86 266.8 257.75 270C258.22 270.18 257.97 270.22 258.25 270.5C258.54 269.62 259.82 268.38 260.25 267.5C262.35 270.78 261.29 275.24 259.5 278.25C258.94 277.33 258.6 276.28 258.25 275.25C258.25 275.41 258.25 275.58 258.25 275.75C258.58 277.1 258.83 278.46 259.25 279.75C259.25 277.47 260.33 279.06 260.5 280.25C261.11 278.66 261.23 276.02 263 275.75Z" fill="rgb(232,155,88)"/>
<path d="M224.5 327.75C231.87 327.95 234.05 322.08 227.75 317.75C226.63 321.25 226.07 324.35 224.5 327.75Z" fill="rgb(253,254,254)"/>
<path d="M250.5 146.5C252.48 146 254.81 146.87 256.25 148.5C258.47 147.12 254.18 145.33 252.26 145.08C247.15 144.42 241.78 146.11 236.49 145.94C234.05 145.85 231.66 145.06 229.25 144.5C231.23 149.19 240.45 146.83 244.5 146.56C246.54 146.42 248.63 146.96 250.5 146.5Z" fill="rgb(250,244,231)"/>
<path d="M243.25 201.5C245.18 203.32 248.14 204.05 250.74 205.4C251.81 205.96 258.34 210.53 258.87 209.4C260.33 206.27 245.71 201.02 243.25 201.5Z" fill="rgb(222,179,138)"/>
<path d="M360.5 195.5C355.45 193.85 345.16 193.96 342.75 200C344.68 199.82 346.49 198.51 348.48 197.9C350.29 197.35 352.14 196.93 354 196.56C356.21 196.12 358.55 196.3 360.5 195.5Z" fill="rgb(10,13,18)"/>
<path d="M268.75 206C272.43 204.89 277.12 203.39 273 199.75C271.33 199.76 269.66 199.96 268 200C267.32 200.86 266.86 202.11 268 202.75C268.6 202.21 268.87 202.27 269.5 202.25C269.06 203.56 268.5 204.85 268.75 206Z" fill="rgb(254,253,245)"/>
<path d="M257.75 197.75C257.2 197.53 256.61 197.4 256 197.25C253.8 197.42 251.77 196.37 251 199.5C253.9 200.46 256.39 202.61 259.25 203.5C258.81 201.66 258.04 199.55 257.75 197.75Z" fill="rgb(253,244,227)"/>
<path d="M176 305.75C181.4 305.52 180.16 307.48 183.75 309C185.37 305.38 182.08 302.03 178.5 302C177.74 303.34 176.63 304.51 176.5 304.25C176.29 304.75 176.28 305.34 176 305.75Z" fill="rgb(232,155,85)"/>
<path d="M248.75 266C239.61 266.44 239.05 248.21 232.75 257.75C234.03 257.87 235.38 256.98 236.75 256.25C239.01 260.58 243.09 269.37 248.75 266Z" fill="rgb(250,221,184)"/>
<path d="M190 184.5C184.91 180.28 173.67 180.75 168 183.25C168.3 184.68 170.15 183.25 171.75 183.25C176 183.25 180.23 182.55 184.5 183.25C186.37 183.55 188.19 184.1 190 184.5Z" fill="rgb(252,226,193)"/>
<path d="M258.25 275.25C258.6 276.28 258.94 277.33 259.5 278.25C261.29 275.24 262.35 270.78 260.25 267.5C259.82 268.38 258.54 269.62 258.25 270.5C257.77 271.89 258.25 273.59 258.25 275.25Z" fill="rgb(235,142,61)"/>
<path d="M259.5 166.5C258.19 171.18 255.52 173.46 252.25 176.75C256.97 178.29 261.97 169.79 259.5 166.5Z" fill="rgb(219,169,122)"/>
<path d="M160 334C160 335.9 160.87 337.79 161.25 339.75C166.1 339.49 162.12 332.67 161.5 330.25C160.51 331.15 160 332.56 160 334Z" fill="rgb(226,155,91)"/>
<path d="M267.5 203.5C266.46 204.13 266.75 201.49 266.75 200.5C265.97 200.46 265.26 200.36 264.75 200C263.33 201.41 262.87 209.85 266.5 207.5C266.58 206.14 267.38 204.85 267.5 203.5Z" fill="rgb(236,157,87)"/>
<path d="M184.5 183.25C180.23 182.55 176 183.25 171.75 183.25C170.55 183.88 165.32 185.97 164.25 185.25C162.32 186.69 167.92 185.64 168.64 185.61C169.37 185.58 170.04 185.11 170.75 185C172.03 182.72 181.22 185.89 184.5 183.25Z" fill="rgb(212,154,103)"/>
<path d="M217 314.75C217 317.47 220.76 320.58 220.75 320.75C225.05 319.04 218.71 314.7 217.25 313.5C217.11 313.89 217 314.3 217 314.75Z" fill="rgb(231,148,73)"/>
<path d="M275.5 163.25C275.5 161.72 273.26 160.18 271 160C269.76 159.89 269.99 160.52 270.5 161.75C269.6 161.81 268.75 161.82 268 162C268.34 162.58 268.71 163.15 269 163.75C270.09 163.66 272.86 164.05 274 164.25C274.5 163.34 274.38 163.58 275.5 163.25Z" fill="rgb(17,13,9)"/>
<path d="M217 314.75C214.69 320.85 221.69 322.94 222.72 320.04C223.58 317.63 218.19 310.65 217.25 313.5C218.71 314.7 225.05 319.04 220.75 320.75C220.76 320.58 217 317.47 217 314.75Z" fill="rgb(228,161,102)"/>
<path d="M174.75 318.75C173.51 316.53 172.05 316.46 170.25 315C169.54 316.32 168.94 317.69 168.25 319C169.43 319.21 170.57 319.65 171.75 319.75C173.2 319.87 174.6 319.69 174.75 318.75Z" fill="rgb(227,153,85)"/>
<path d="M190.25 248C191.28 247.57 192.35 247.15 193.5 247C192.84 244.45 191.73 241.87 188.75 241.75C189.12 245.18 188.5 248.33 188.5 251.75L188.75 251.75C188.75 250.56 189.75 249.4 189.75 248.25C189.75 246.57 188.64 244.9 190 243.25C190.39 244.72 190.25 246.35 190.25 248Z" fill="rgb(236,171,110)"/>
<path d="M190 184.5C188.19 184.1 186.37 183.55 184.5 183.25C181.22 185.89 172.03 182.72 170.75 185C177.42 183.91 183.57 186 190 186C190.35 185.36 191.24 185.33 192.25 185.5C191.53 185.1 190.8 184.67 190 184.5Z" fill="rgb(240,181,127)"/>
<path d="M260 159.75C259.83 158.72 258.76 157.87 257.75 158C257.34 158.04 256.91 158.31 256.5 158.25C252.97 162.83 260.76 164.44 260 159.75Z" fill="rgb(22,13,5)"/>
<path d="M231.25 277.25C227.46 278.8 224.01 290.62 224.25 294.25C227.16 290.82 226.67 284.61 229.26 280.37C229.91 279.3 230.64 278.29 231.25 277.25Z" fill="rgb(250,253,252)"/>
<path d="M266.25 145C270.42 142.42 259.29 141.6 258 141.5C257.04 142.23 255.51 142.25 254 142.25C253.83 142.25 253.66 142.25 253.5 142.25C254.99 142.72 256.6 142.88 258 143.5C261.53 143.3 263.1 143.11 266.25 145Z" fill="rgb(244,218,187)"/>
<path d="M274.75 148C274.09 147.01 273.34 146.09 272.5 145.25C271.59 146.73 270.3 148.35 269.75 148L269.5 148.25C269.44 148.86 269.44 149.45 269.5 150C270.86 150.1 273.51 150.31 274.75 150.75C274.45 149.73 274.28 148.66 274.75 148Z" fill="rgb(225,164,106)"/>
<path d="M194.25 250C190.9 250.52 193.49 260.16 196.05 259.64C197.27 259.4 193.74 253.03 194.25 250Z" fill="rgb(228,173,124)"/>
<path d="M231 200.75C230.04 197.76 226.58 194.58 224 193C223.23 195.09 229.01 200.51 231 200.75Z" fill="rgb(218,170,125)"/>
<path d="M145.5 331.5C145.47 331.15 145.6 330.79 145.5 330.5C144.21 326.74 138.1 329.89 137.25 332.75C140.95 331.22 141.48 331.16 145.5 331.5Z" fill="rgb(232,177,122)"/>
<path d="M263.75 183.5C263.45 181.66 263 179.83 263 178C260.37 177.67 261.51 185.73 263.75 186.75C264.13 185.41 263.96 184.81 263.75 183.5Z" fill="rgb(252,245,215)"/>
<path d="M245.25 186.75C246.71 187.23 248.2 187.8 249 187.25C247.05 185.3 242.55 181.87 239.5 182.5C241.31 184.01 243.57 185.07 245.25 186.75Z" fill="rgb(239,205,168)"/>
<path d="M272 153.5C269.32 152.83 264.51 153.4 262.5 155.25C265.52 155.96 269.56 155.23 272.75 155.5C271.98 154.82 271 154.37 270 154C270.62 153.75 271.29 153.59 272 153.5Z" fill="rgb(207,159,113)"/>
<path d="M259.25 203.5C260.02 206.77 260.69 201.59 261 200.75C261.93 201.22 262.77 201.85 263.5 201.75C262.34 199.85 260.08 198.65 257.75 197.75C258.04 199.55 258.81 201.66 259.25 203.5Z" fill="rgb(201,151,103)"/>
<path d="M249 187.25C248.2 187.8 246.71 187.23 245.25 186.75C247.84 189.34 250.47 192.19 253.5 192.5C252.37 190.53 250.65 188.9 249 187.25Z" fill="rgb(223,164,111)"/>
<path d="M280 191.25C278.09 190.61 273.58 192.22 272.25 193.5C274.43 194.05 278.04 193.6 280.25 193.25C280.16 192.55 280.05 191.88 280 191.25Z" fill="rgb(224,182,143)"/>
<path d="M314 179.5C316.36 179.69 319.83 181.49 321.5 179.25C317.96 178.8 314.49 177.76 311 177.75C311.85 178.59 312.85 179.4 314 179.5Z" fill="rgb(253,246,227)"/>
<path d="M153.5 345C153.07 343.7 153.05 342.18 152.4 340.97C150.59 337.56 147.7 345.98 153.5 345Z" fill="rgb(231,162,103)"/>
<path d="M235.75 267.5C233.75 262.07 225.66 275.46 229.25 273.25C230.35 270.23 232.8 268.49 235.75 267.5Z" fill="rgb(237,206,173)"/>
<path d="M269.5 150C269.44 149.45 269.44 148.86 269.5 148.25C267 149.96 262.5 148.66 259.75 150.75C260.13 150.89 260.55 151 261 151C263.76 151 266.85 149.79 269.5 150Z" fill="rgb(216,199,177)"/>
<path d="M205 220.25C202.91 218.62 200.53 217.28 198 217C197.81 217.58 197.65 218.16 197.5 218.75C199.26 219.26 201.01 219.83 202.5 220.75C203.34 220.62 204.17 220.45 205 220.25Z" fill="rgb(229,190,147)"/>
<path d="M256.5 158.25C256.22 158.2 255.98 158.07 255.75 158C250.51 163.93 263.72 166.43 261.25 159C261.17 159.52 260.61 159.82 260 159.75C260.76 164.44 252.97 162.83 256.5 158.25Z" fill="rgb(228,181,133)"/>
<path d="M266.25 145C263.1 143.11 261.53 143.3 258 143.5C260.61 144.65 263.32 146.8 266.25 145Z" fill="rgb(213,150,94)"/>
<path d="M256.25 148.5C254.81 146.87 252.48 146 250.5 146.5C251.76 149.49 253.9 149.94 256.25 148.5Z" fill="rgb(216,151,97)"/>
<path d="M235.25 289.5C235.15 289.31 235.07 289.14 235 289C232.87 293.84 227.71 300.62 227.25 305.75C230.5 302.34 233.67 294.02 235.25 289.5Z" fill="rgb(252,254,253)"/>
<path d="M344 178.5C341.48 177.64 339.06 177.89 336.5 178C336.93 178.84 337.12 179.86 337.75 180.25C339.27 179.92 340.88 179.99 342.5 180C342.66 178.89 342.74 178.6 344 178.5Z" fill="rgb(232,166,104)"/>
<path d="M257.75 189C259.59 193.59 264.04 195.05 267.25 191C260.45 191.65 264.34 193.25 257.75 189Z" fill="rgb(217,174,130)"/>
<path d="M282 196.5C280.45 196.07 278.66 196.58 277 197.25C278.14 200.78 280.18 199.68 282.5 198.25C281.91 198.15 281.33 198.07 280.75 198C280.92 196.79 280.78 196.69 282 196.5Z" fill="rgb(220,164,110)"/>
<path d="M237.25 150.25C238.91 150.69 247.75 150.99 248.5 150.5C245.54 149.42 239.87 148.25 237.25 150.25Z" fill="rgb(194,168,139)"/>
<path d="M147.25 316C148.71 317.42 149.74 319 150.25 321C154.17 319.67 150.26 315.15 147.25 316Z" fill="rgb(225,172,120)"/>
<path d="M327 179.25C325.15 179.25 323.3 179.47 321.5 179.25C319.83 181.49 316.36 179.69 314 179.5C317.04 181.6 321.86 180.77 326.5 180.25L326.5 180C326.7 179.78 326.81 179.49 327 179.25Z" fill="rgb(246,212,175)"/>
<path d="M207.5 187.5C204.83 187.5 202.14 187.4 199.49 187.24C197.02 187.09 204.21 190.52 207.5 187.5Z" fill="rgb(156,138,117)"/>
<path d="M337 197C337 195.88 334.08 194.91 331.5 194C332.1 195.15 337 199.93 337 197Z" fill="rgb(207,147,93)"/>
<path d="M226.5 175.25C228.93 174.85 231.45 175.08 233.75 174.5C230.4 173.57 227.84 172.5 224.5 174.25C225.28 174.05 226.07 174.51 226.5 175.25Z" fill="rgb(242,222,196)"/>
<path d="M356 181.25C354.14 179.66 351.4 179.15 348.75 178.5C349.38 179.28 350.14 179.96 351 180.5C352.52 180.87 353.91 182.1 355.25 182C355.6 181.97 355.85 181.63 356 181.25Z" fill="rgb(253,249,227)"/>
<path d="M202.5 220.75C204.51 221.99 206.07 224.24 208 224.5C207.84 222.86 206.49 221.41 205 220.25C204.17 220.45 203.34 220.62 202.5 220.75Z" fill="rgb(229,180,129)"/>
<path d="M365 186.75C366.64 187.01 368.34 186.99 370 187.25C368.35 185.7 365.6 185.39 363 184.75C362.44 184.81 363.01 185.95 364.25 186.5C364.5 186.61 364.75 186.71 365 186.75Z" fill="rgb(253,249,236)"/>
<path d="M256 197.25C254.58 196.89 253.13 196.53 251.75 196C250.67 196.43 249.75 197.16 248.75 197.75C247.34 198.56 250.28 199.26 251 199.5C251.77 196.37 253.8 197.42 256 197.25Z" fill="rgb(244,185,131)"/>
<path d="M184 255.5C183.72 257.43 186.05 262.02 188 261.75C187.22 259.34 185.89 257.08 184 255.5Z" fill="rgb(238,186,137)"/>
<path d="M359.5 192.25C359.21 189.8 355.83 190.07 353.5 189.5C352.96 189.59 352.45 189.76 352 190C353.49 190.12 354.87 191.05 354.75 191.25C356.28 191.76 358.09 191.7 359.5 192.25Z" fill="rgb(222,154,94)"/>
<path d="M188.75 251.75L188.5 251.75C188.5 252.61 188.11 253.46 187.5 254C188.84 255.95 188.36 259.53 191 260.75C190.29 257.67 188.75 254.74 188.75 251.75Z" fill="rgb(239,190,140)"/>
<path d="M352.5 212.25C351.72 211.14 349.35 209.89 348.25 208.75C348.5 210.87 349.46 212.91 351 214.25C351.6 213.66 351.96 212.86 352.5 212.25Z" fill="rgb(235,178,124)"/>
<path d="M237.5 228C236.48 228.16 235.42 227.62 234.5 227C233.13 228.54 231.2 229.74 231 231.25C232.45 230.41 236.79 229.2 237.5 228Z" fill="rgb(242,181,124)"/>
<path d="M179.75 256.5C180.3 258.5 182.19 261.44 183.75 262.75C184.13 260.62 181.79 258.38 180.75 256C180.43 256.19 180.05 256.29 179.75 256.5Z" fill="rgb(236,183,133)"/>
<path d="M142.25 344C143.36 342.64 144.88 339.89 145.5 338.25C142.97 338.56 141.49 341.73 142.25 344Z" fill="rgb(234,187,140)"/>
<path d="M274 154C273.35 153.89 272.68 153.67 272 153.5C271.29 153.59 270.62 153.75 270 154C271 154.37 271.98 154.82 272.75 155.5C274.01 155.6 275.24 155.99 276.5 156.25C276.6 155.63 276.85 155.06 277 154.5C276.32 154.44 275.67 154.11 275 154C274.32 154.7 273.83 154.75 274 154Z" fill="rgb(237,199,163)"/>
<path d="M343.25 187.5C341.62 186.27 339.71 185.25 337.75 185.25C338.65 186.57 340.01 187.59 341.5 188.25C342.13 188.08 342.72 187.83 343.25 187.5Z" fill="rgb(254,246,221)"/>
<path d="M151 273.5C148.72 273.76 145.37 275.37 144 277C146.66 276.94 149.29 275.56 151 273.5Z" fill="rgb(248,252,252)"/>
<path d="M238.25 225.25C237.87 225.06 237.54 224.79 237.25 224.5C236.36 225.38 235.3 226.09 234.5 227C235.42 227.62 236.48 228.16 237.5 228C237.83 227.43 238.02 226.75 238.5 226.5C238.22 226.09 238.03 225.6 238.25 225.25Z" fill="rgb(231,159,97)"/>
<path d="M254 142.25C253.64 141.84 253.31 141.42 253 141C250.88 140.82 248.79 140.05 247 140.5C248.94 141.63 251.21 142.25 253.5 142.25C253.66 142.25 253.83 142.25 254 142.25Z" fill="rgb(248,252,252)"/>
<path d="M268 200C268.1 199.21 268.57 198.57 269.25 198.25C267.57 198.25 265.87 198.87 264.75 200C265.26 200.36 265.97 200.46 266.75 200.5C266.75 201.49 266.46 204.13 267.5 203.5C267.72 203.36 267.77 202.94 268 202.75C266.86 202.11 267.32 200.86 268 200Z" fill="rgb(232,176,121)"/>
<path d="M363 184.75C362.04 184.51 361 184.49 360 184.25C358.74 184.25 357.48 184.22 356.5 184.75C358.69 185.57 361.9 186.18 364.25 186.5C363.01 185.95 362.44 184.81 363 184.75Z" fill="rgb(250,221,192)"/>
<path d="M268.75 206C268.5 204.85 269.06 203.56 269.5 202.25C268.87 202.27 268.6 202.21 268 202.75C267.77 202.94 267.72 203.36 267.5 203.5C267.38 204.85 266.58 206.14 266.5 207.5C267.27 206.99 267.92 206.24 268.75 206Z" fill="rgb(199,139,87)"/>
<path d="M171.75 319.75C172.96 320.79 173.73 322.41 175 323C175.51 321.62 175.45 320.01 174.75 318.75C174.6 319.69 173.2 319.87 171.75 319.75Z" fill="rgb(211,162,113)"/>
<path d="M196.75 221.25C198.39 222.79 201.05 224.01 203 225.25C202.76 223.29 199.75 221.76 196.75 221.25Z" fill="rgb(248,250,248)"/>
<path d="M273 199.75C271.96 198.83 270.63 198.25 269.25 198.25C268.57 198.57 268.1 199.21 268 200C269.66 199.96 271.33 199.76 273 199.75Z" fill="rgb(254,213,165)"/>
<path d="M272.5 145.25C271.9 144.65 271.27 144.1 270.5 144C270.45 145.45 270.41 146.92 269.75 148C270.3 148.35 271.59 146.73 272.5 145.25Z" fill="rgb(235,209,182)"/>
<path d="M277.75 154.5C276.92 152.1 276.15 150.12 274.75 148C274.28 148.66 274.45 149.73 274.75 150.75C276.22 151.26 277.36 153.08 277 154.5C277.24 154.52 277.49 154.5 277.75 154.5Z" fill="rgb(216,204,185)"/>
<path d="M347.75 188C346.05 188 344.27 188.27 343.25 187.5C342.72 187.83 342.13 188.08 341.5 188.25C342 188.47 341.81 189.53 341.25 190.5C341.79 190.65 342.38 190.75 343 190.75C343.35 190.75 343.68 190.55 344 190.5C342.28 188.24 346.06 188.39 347.75 188Z" fill="rgb(248,218,180)"/>
<path d="M195 235.25C194.9 233.52 192.01 230.4 190.75 232.75C192.98 233.47 193.31 233.64 195 235.25Z" fill="rgb(234,197,164)"/>
<path d="M238.5 165C240.73 164.87 242.87 163.74 245 162.75C243.18 161.91 240.43 163.16 238.5 165Z" fill="rgb(252,254,254)"/>
<path d="M223.5 202.25C223.08 200.2 221.04 198.45 218.75 197.5C219.51 199.43 221.59 200.8 223.5 202.25Z" fill="rgb(210,185,151)"/>
<path d="M318 186.75C318.23 186.55 318.4 186.31 318.5 186C316.6 186.3 314.52 184.9 312.5 183.75C313.23 185.59 315.63 186.73 318 186.75Z" fill="rgb(249,245,238)"/>
<path d="M218 203C218.6 203.06 219.19 203.07 219.75 203C218.64 201.89 217.45 200.8 216 200.25C215.79 201.67 216.91 201.91 218 203Z" fill="rgb(240,210,175)"/>
<path d="M261.25 159C260.83 157.76 259.56 156.75 258.25 156.75C258.03 157.18 257.86 157.6 257.75 158C258.76 157.87 259.83 158.72 260 159.75C260.61 159.82 261.17 159.52 261.25 159Z" fill="rgb(245,234,211)"/>
<path d="M171.75 183.25C170.15 183.25 168.3 184.68 168 183.25C166.67 183.83 165.35 184.41 164.25 185.25C165.32 185.97 170.55 183.88 171.75 183.25Z" fill="rgb(231,198,165)"/>
<path d="M190 186C192.44 186 194.93 187.07 197 186.5C195.47 186.03 193.87 185.77 192.25 185.5C191.24 185.33 190.35 185.36 190 186Z" fill="rgb(234,208,176)"/>
<path d="M369 197C370.28 196.8 370.8 194.67 371 192.75C369.9 192.92 369.23 194.99 369 197Z" fill="rgb(245,253,252)"/>
<path d="M219.75 203C219.19 203.07 218.6 203.06 218 203C219.48 204.48 220.92 206.11 222.75 206.75C221.94 205.36 220.87 204.12 219.75 203Z" fill="rgb(232,191,147)"/>
<path d="M191 238.75C190.03 236.54 188.34 236.64 187.5 238.75C188.66 238.75 189.83 238.75 191 238.75Z" fill="rgb(228,198,165)"/>
<path d="M261 151C260.55 151 260.13 150.89 259.75 150.75C258.07 152.01 255.22 152.54 255 154C256.97 153.28 259.1 151.95 261 151Z" fill="rgb(182,188,181)"/>
<path d="M195.5 227.75C196.17 229 196.81 230.29 197.75 231.25C198.07 229.64 197.54 227.41 196.25 226.5C195.66 226.57 195.24 227.27 195.5 227.75Z" fill="rgb(246,243,230)"/>
<path d="M190.25 248C190.25 246.35 190.39 244.72 190 243.25C188.64 244.9 189.75 246.57 189.75 248.25C189.91 248.16 190.07 248.07 190.25 248Z" fill="rgb(191,111,48)"/>
<path d="M353.5 189.5C351.37 188.97 349.09 188.93 347 189.5C348.1 190.31 350.1 189.84 352 190C352.45 189.76 352.96 189.59 353.5 189.5Z" fill="rgb(189,151,115)"/>
<path d="M282.5 198.25C283.88 197.39 283.37 196.88 282 196.5C280.78 196.69 280.92 196.79 280.75 198C281.33 198.07 281.91 198.15 282.5 198.25Z" fill="rgb(249,237,219)"/>
<path d="M277.75 154.5C277.49 154.5 277.24 154.52 277 154.5C276.85 155.06 276.6 155.63 276.5 156.25C277.23 156.4 277.95 156.81 278.75 157C278.57 155.9 278.07 155.43 277.75 154.5Z" fill="rgb(253,249,240)"/>
<path d="M343.75 184.75C344.34 185.93 346.02 186.56 347.5 186.25C346.55 185.41 345.18 185.01 343.75 184.75Z" fill="rgb(244,252,252)"/>
<path d="M260.5 280.25C260.33 279.06 259.25 277.47 259.25 279.75C259.25 280.53 259.47 281.29 259.75 282C260.05 281.46 260.26 280.85 260.5 280.25Z" fill="rgb(158,102,62)"/>
<path d="M314.25 196C313.14 196.95 313.04 198.15 313 199.75C314.17 199.56 314.58 199.24 314.25 198.25C314.02 197.58 314.14 196.79 314.25 196Z" fill="rgb(198,166,140)"/>
<path d="M258 141.5C256.32 141.36 254.66 141.13 253 141C253.31 141.42 253.64 141.84 254 142.25C255.51 142.25 257.04 142.23 258 141.5Z" fill="rgb(233,237,232)"/>
<path d="M351 214.25C351.63 214.8 352.22 215.43 353 215.75C352.96 214.44 353.09 213.08 352.5 212.25C351.96 212.86 351.6 213.66 351 214.25Z" fill="rgb(240,203,162)"/>
<path d="M196.25 226.5C194.98 225.6 193.58 227.7 193.25 228.5C194.02 228.63 194.84 228.28 195.5 227.75C195.24 227.27 195.66 226.57 196.25 226.5Z" fill="rgb(236,206,171)"/>
<path d="M225.25 175.5C224.46 175.05 224.63 175.3 224.5 174.25C223.51 174.49 222.65 175.15 221.75 175.75C222.92 175.97 224.13 175.87 225.25 175.5Z" fill="rgb(237,230,223)"/>
<path d="M337.75 180.25C339.09 181.08 343.37 181.32 342.5 180C340.88 179.99 339.27 179.92 337.75 180.25Z" fill="rgb(173,114,63)"/>
<path d="M348.75 178.5C348.11 178.34 347.42 178.44 346.75 178.5C347.04 178.87 347.36 179.21 347.75 179.5C348.84 179.59 349.88 180.22 351 180.5C350.14 179.96 349.38 179.28 348.75 178.5Z" fill="rgb(253,215,176)"/>
<path d="M238.25 225.25C238.76 224.4 239.27 223.51 239.5 222.5C238.61 222.87 237.99 223.75 237.25 224.5C237.54 224.79 237.87 225.06 238.25 225.25Z" fill="rgb(248,200,150)"/>
<path d="M258.25 270.5C257.97 270.22 258.22 270.18 257.75 270C257.51 270.66 257.17 271.3 257 272C257.71 273.05 257.92 274.43 258.25 275.75C258.25 275.58 258.25 275.41 258.25 275.25C258.25 273.59 257.77 271.89 258.25 270.5Z" fill="rgb(240,205,164)"/>
<path d="M310.5 310C310.54 309.06 310.73 308.14 311 307.25C310.16 307.61 309.52 308.39 308.75 309C309.41 309.51 310.04 310.15 310.5 310Z" fill="rgb(210,211,211)"/>
<path d="M235.25 289.5C235.76 288.02 236.67 286.66 236.75 285.25C236.07 286.45 235.55 287.74 235 289C235.07 289.14 235.15 289.31 235.25 289.5Z" fill="rgb(199,206,205)"/>
<path d="M241.25 215.25C242.21 216.62 243.51 217.85 245 218C243.89 216.95 242.59 216.08 241.25 215.25Z" fill="rgb(244,251,247)"/>
<path d="M274 164.25C274.57 164.34 275.11 164.8 275.75 165C275.75 164.44 275.5 163.85 275.5 163.25C274.38 163.58 274.5 163.34 274 164.25Z" fill="rgb(182,142,105)"/>
<path d="M262.5 196.75C263.77 197 264.62 196.49 265.5 195.5C264.46 195.31 263.33 195.9 262.5 196.75Z" fill="rgb(211,222,216)"/>
<path d="M280.25 193.25C282.47 192.88 281.77 191.84 280 191.25C280.05 191.88 280.16 192.55 280.25 193.25Z" fill="rgb(242,228,206)"/>
<path d="M229.25 192.75C229.67 191.63 230.83 190.82 231.5 189.75C230.17 190.19 229.09 191.42 227.75 191.75C228.34 192.01 228.96 192.28 229.25 192.75Z" fill="rgb(150,115,86)"/>
<path d="M179.25 259.5C179.31 260.91 179.68 262.28 180.5 263.25C180.74 262.03 180.09 260.68 179.25 259.5Z" fill="rgb(215,197,170)"/>
<path d="M226.5 175.25C226.07 174.51 225.28 174.05 224.5 174.25C224.63 175.3 224.46 175.05 225.25 175.5C225.64 175.36 226.07 175.31 226.5 175.25Z" fill="rgb(248,225,198)"/>
<path d="M161.5 330.25C161.41 329.94 161.5 329.59 161.5 329.25C160.84 330.29 159.87 331.12 159 332C159.55 332.3 159.73 333.17 160 334C160 332.56 160.51 331.15 161.5 330.25Z" fill="rgb(151,107,67)"/>
<path d="M257.75 158C257.86 157.6 258.03 157.18 258.25 156.75C257.29 156.75 256.37 157.28 255.75 158C255.98 158.07 256.22 158.2 256.5 158.25C256.91 158.31 257.34 158.04 257.75 158Z" fill="rgb(207,187,160)"/>
<path d="M346.75 178.5C346.13 178.54 345.54 178.44 345 178.5C345.63 179.31 345.46 179.19 346.5 179.75C346.89 179.6 347.31 179.46 347.75 179.5C347.36 179.21 347.04 178.87 346.75 178.5Z" fill="rgb(231,170,111)"/>
<path d="M178.5 302C178.33 301.83 178.16 301.66 178 301.5C177.48 302.39 176.9 303.28 176.5 304.25C176.63 304.51 177.74 303.34 178.5 302Z" fill="rgb(176,120,71)"/>
<path d="M357 182.5C356.74 182.02 356.4 181.59 356 181.25C355.85 181.63 355.6 181.97 355.25 182C355.88 182.72 356.77 184.2 357 182.5Z" fill="rgb(246,226,184)"/>
<path d="M276 186C276.48 187.37 276.46 187.96 278 187.75C277.45 187.06 276.76 186.48 276 186Z" fill="rgb(199,207,206)"/>
<path d="M357 214.5C356.78 215.94 356.76 215.96 358.25 215.75C357.79 214.87 357.83 214.96 357 214.5Z" fill="rgb(210,215,214)"/>
<path d="M359.5 215.5C359.4 216.24 360.59 217.15 360.88 216.89C361.6 216.23 359.78 215.63 359.5 215.5Z" fill="rgb(193,201,195)"/>
<path d="M275 154C274.67 153.94 274.32 154.05 274 154C273.83 154.75 274.32 154.7 275 154Z" fill="rgb(250,218,181)"/>
<path d="M365.75 200C365.46 200.28 366.6 201.42 366.89 201.13C367.21 200.8 366.06 199.68 365.75 200Z" fill="rgb(200,210,207)"/>
<path d="M351.5 208.5C351.79 209.43 352.07 210.39 352.75 210.75C352.47 209.59 352.27 209.19 351.5 208.5Z" fill="rgb(194,182,164)"/>
<path d="M210.25 212.25C211.23 210.6 210.79 210.64 209.5 211.75C209.69 211.98 209.93 212.15 210.25 212.25Z" fill="rgb(151,99,57)"/>
</g>
</svg>
